<svg width="24" height="24" viewBox="0 0 24 24" fill="none" xmlns="http://www.w3.org/2000/svg">
<path d="M8 5.75C7.80149 5.74869 7.61149 5.66925 7.47112 5.52888C7.33075 5.38851 7.25131 5.19851 7.25 5V2C7.25131 1.80149 7.33075 1.61149 7.47112 1.47112C7.61149 1.33075 7.80149 1.25131 8 1.25C8.19851 1.25131 8.38851 1.33075 8.52888 1.47112C8.66925 1.61149 8.74869 1.80149 8.75 2V5C8.74869 5.19851 8.66925 5.38851 8.52888 5.52888C8.38851 5.66925 8.19851 5.74869 8 5.75Z" fill="#292D32"/>
<path d="M16 5.75C15.8015 5.74869 15.6115 5.66925 15.4711 5.52888C15.3307 5.38851 15.2513 5.19851 15.25 5V2C15.2513 1.80149 15.3307 1.61149 15.4711 1.47112C15.6115 1.33075 15.8015 1.25131 16 1.25C16.1985 1.25131 16.3885 1.33075 16.5289 1.47112C16.6693 1.61149 16.7487 1.80149 16.75 2V5C16.7487 5.19851 16.6693 5.38851 16.5289 5.52888C16.3885 5.66925 16.1985 5.74869 16 5.75Z" fill="#292D32"/>
<path d="M8.5 14.5C8.36932 14.4984 8.24022 14.4712 8.12 14.42C7.9973 14.3705 7.88526 14.2978 7.79 14.206C7.60675 14.0163 7.503 13.7637 7.5 13.5C7.50158 13.3693 7.52876 13.2402 7.58 13.12C7.63073 12.9989 7.70175 12.8873 7.79 12.79C7.88561 12.6996 7.99762 12.6283 8.12 12.58C8.30258 12.5061 8.50263 12.4867 8.69603 12.5239C8.88943 12.5612 9.06793 12.6536 9.21 12.79C9.39257 12.9817 9.49612 13.2353 9.5 13.5C9.49781 13.567 9.49113 13.6339 9.48 13.7C9.46911 13.7627 9.44889 13.8233 9.42 13.88C9.39814 13.9437 9.36788 14.0043 9.33 14.06C9.29309 14.1124 9.25301 14.1625 9.21 14.21C9.01826 14.3926 8.76473 14.4961 8.5 14.5Z" fill="#292D32"/>
<path d="M12 14.501C11.8693 14.4994 11.7402 14.4723 11.62 14.421C11.4976 14.3727 11.3856 14.3014 11.29 14.211C11.1058 14.0203 11.002 13.7661 11 13.501C11.0014 13.37 11.0286 13.2406 11.08 13.12C11.1307 12.9989 11.2017 12.8873 11.29 12.79C11.3856 12.6996 11.4976 12.6283 11.62 12.58C11.8021 12.5034 12.0028 12.4825 12.1968 12.5199C12.3908 12.5573 12.5694 12.6513 12.71 12.79C12.8928 12.982 12.9964 13.2359 13 13.501C12.9978 13.5681 12.9911 13.6349 12.98 13.701C12.9691 13.7637 12.9489 13.8244 12.92 13.881C12.8981 13.9448 12.8679 14.0053 12.83 14.061C12.7931 14.1134 12.753 14.1635 12.71 14.211C12.5183 14.3936 12.2647 14.4971 12 14.501Z" fill="#292D32"/>
<path d="M15.5 14.501C15.3693 14.4994 15.2402 14.4723 15.12 14.421C14.9976 14.3727 14.8856 14.3014 14.79 14.211L14.67 14.061C14.6321 14.0053 14.6019 13.9448 14.58 13.881C14.5511 13.8244 14.5309 13.7637 14.52 13.701C14.5089 13.6349 14.5022 13.5681 14.5 13.501C14.5036 13.2359 14.6072 12.982 14.79 12.79C14.8856 12.6996 14.9976 12.6283 15.12 12.58C15.3021 12.5034 15.5028 12.4825 15.6968 12.5199C15.8908 12.5573 16.0694 12.6513 16.21 12.79C16.3928 12.982 16.4964 13.2359 16.5 13.501C16.4978 13.5681 16.4911 13.6349 16.48 13.701C16.4691 13.7637 16.4489 13.8244 16.42 13.881C16.3981 13.9448 16.3679 14.0053 16.33 14.061C16.2931 14.1134 16.253 14.1635 16.21 14.211C16.0183 14.3936 15.7647 14.4971 15.5 14.501Z" fill="#292D32"/>
<path d="M8.5 18C8.36932 17.9984 8.24022 17.9712 8.12 17.92C7.99907 17.8702 7.88749 17.8002 7.79 17.713C7.60674 17.5205 7.50313 17.2658 7.5 17C7.50158 16.8693 7.52876 16.7402 7.58 16.62C7.62602 16.4968 7.69759 16.3846 7.79 16.291C7.98339 16.1126 8.23687 16.0135 8.5 16.0135C8.76313 16.0135 9.01661 16.1126 9.21 16.291C9.39233 16.4825 9.49587 16.7356 9.5 17C9.49612 17.2647 9.39257 17.5183 9.21 17.71C9.01826 17.8926 8.76473 17.9961 8.5 18Z" fill="#292D32"/>
<path d="M12 18C11.7357 17.9969 11.4822 17.8945 11.29 17.713C11.1067 17.5205 11.0031 17.2658 11 17C11.0016 16.8693 11.0288 16.7402 11.08 16.62C11.126 16.4968 11.1976 16.3846 11.29 16.291C11.4834 16.1126 11.7369 16.0135 12 16.0135C12.2631 16.0135 12.5166 16.1126 12.71 16.291C12.8025 16.3849 12.8741 16.4974 12.92 16.621C12.9711 16.7409 12.9983 16.8697 13 17C12.9961 17.2647 12.8926 17.5183 12.71 17.71C12.5183 17.8926 12.2647 17.9961 12 18Z" fill="#292D32"/>
<path d="M15.5 17.999C15.2353 17.9951 14.9817 17.8916 14.79 17.709C14.6975 17.6151 14.6259 17.5026 14.58 17.379C14.5288 17.2588 14.5016 17.1297 14.5 16.999C14.5017 16.8687 14.5289 16.7399 14.58 16.62C14.6259 16.4964 14.6975 16.3839 14.79 16.29C14.9064 16.1747 15.0494 16.0898 15.2063 16.0427C15.3632 15.9956 15.5293 15.9878 15.69 16.02C15.7562 16.0293 15.8205 16.0496 15.88 16.08C15.9437 16.1019 16.0043 16.1321 16.06 16.17C16.1124 16.2069 16.1625 16.247 16.21 16.29C16.3923 16.4815 16.4959 16.7346 16.5 16.999C16.4961 17.2637 16.3926 17.5173 16.21 17.709C16.0183 17.8916 15.7647 17.9951 15.5 17.999Z" fill="#292D32"/>
<path d="M20.5 9.83997H3.5C3.30149 9.83866 3.11149 9.75922 2.97112 9.61885C2.83075 9.47848 2.75131 9.28847 2.75 9.08997C2.75131 8.89146 2.83075 8.70145 2.97112 8.56108C3.11149 8.42071 3.30149 8.34128 3.5 8.33997H20.5C20.6985 8.34128 20.8885 8.42071 21.0289 8.56108C21.1693 8.70145 21.2487 8.89146 21.25 9.08997C21.2487 9.28847 21.1693 9.47848 21.0289 9.61885C20.8885 9.75922 20.6985 9.83866 20.5 9.83997Z" fill="#292D32"/>
<path d="M16 22.75H8C4.35 22.75 2.25 20.65 2.25 17V8.5C2.25 4.85 4.35 2.75 8 2.75H16C19.65 2.75 21.75 4.85 21.75 8.5V17C21.75 20.65 19.65 22.75 16 22.75ZM8 4.25C5.14 4.25 3.75 5.64 3.75 8.5V17C3.75 19.86 5.14 21.25 8 21.25H16C18.86 21.25 20.25 19.86 20.25 17V8.5C20.25 5.64 18.86 4.25 16 4.25H8Z" fill="#292D32"/>
</svg>
