<svg width="25" height="24" viewBox="0 0 25 24" fill="none" xmlns="http://www.w3.org/2000/svg">
<path d="M17.9934 22.7398H6.28091C4.94929 22.7377 3.67298 22.213 2.73233 21.2812C1.79168 20.3493 1.26362 19.0863 1.26416 17.7698V10.3628C1.3015 9.61466 1.49301 8.88195 1.82694 8.2096C2.16088 7.53725 2.6302 6.93943 3.20613 6.45278L8.6578 2.24978C9.51995 1.63346 10.5509 1.29014 11.6145 1.26514C12.6781 1.24015 13.7244 1.53465 14.6152 2.10978L20.8659 6.43978C21.4992 6.92275 22.0189 7.53591 22.3892 8.23688C22.7594 8.93785 22.9712 9.70994 23.0102 10.4998V17.7798C23.0085 19.0948 22.4795 20.3554 21.539 21.2853C20.5985 22.2151 19.3234 22.7382 17.9934 22.7398ZM9.58832 3.42978L4.13665 7.62978C3.34385 8.3328 2.85795 9.31259 2.78132 10.3628V17.7728C2.78132 18.6914 3.1497 19.5725 3.80571 20.2229C4.46172 20.8734 5.35183 21.2401 6.28091 21.2428H17.9934C18.4532 21.2427 18.9085 21.153 19.3332 20.9789C19.7579 20.8047 20.1438 20.5496 20.4688 20.228C20.7937 19.9064 21.0515 19.5247 21.2272 19.1046C21.4029 18.6846 21.4933 18.2344 21.493 17.7798V10.4998C21.4554 9.95128 21.3029 9.41648 21.0452 8.92931C20.7875 8.44215 20.4303 8.01324 19.9961 7.66978L13.7453 3.33978C13.1201 2.94947 12.3924 2.74987 11.6531 2.76587C10.9138 2.78188 10.1957 3.01279 9.58832 3.42978Z" fill="#454559"/>
</svg>
