<svg width="24" height="24" viewBox="0 0 24 24" fill="none" xmlns="http://www.w3.org/2000/svg">
<path d="M12.0201 20.53C9.68523 20.5324 7.36533 20.1576 5.15007 19.42C4.75167 19.2947 4.38659 19.0813 4.08191 18.7957C3.77723 18.51 3.54077 18.1595 3.39007 17.77C3.24893 17.3792 3.19987 16.9612 3.2467 16.5484C3.29353 16.1356 3.43499 15.7392 3.66007 15.39L4.81007 13.48C5.0821 12.963 5.23903 12.3933 5.27007 11.81V8.91998C5.27007 7.12977 5.98122 5.41288 7.24709 4.14701C8.51296 2.88114 10.2299 2.16998 12.0201 2.16998C13.8103 2.16998 15.5272 2.88114 16.793 4.14701C18.0589 5.41288 18.7701 7.12977 18.7701 8.91998V11.81C18.8028 12.3959 18.9585 12.9683 19.2271 13.49L20.3671 15.39C20.5792 15.745 20.7091 16.1431 20.7472 16.555C20.7853 16.9669 20.7305 17.382 20.5871 17.77C20.4455 18.1565 20.218 18.5058 19.9218 18.7916C19.6256 19.0774 19.2684 19.2923 18.8771 19.42C16.6664 20.158 14.3507 20.5329 12.0201 20.53ZM12.0201 3.66998C10.6282 3.67157 9.29373 4.2252 8.30951 5.20943C7.32529 6.19365 6.77165 7.52808 6.77007 8.91998V11.81C6.73442 12.6636 6.50532 13.4979 6.10007 14.25L4.95007 16.16C4.84308 16.318 4.77391 16.4985 4.74789 16.6875C4.72188 16.8765 4.73973 17.069 4.80007 17.25C4.87291 17.4284 4.98555 17.5878 5.1294 17.7161C5.27324 17.8443 5.44449 17.938 5.63007 17.99C9.77847 19.3899 14.2717 19.3899 18.4201 17.99C18.5971 17.932 18.7586 17.8343 18.892 17.7043C19.0255 17.5743 19.1274 17.4155 19.1901 17.24C19.2559 17.0641 19.2811 16.8756 19.2637 16.6885C19.2464 16.5015 19.1871 16.3208 19.0901 16.16L17.9401 14.25C17.5327 13.4951 17.3035 12.6571 17.2701 11.8V8.91998C17.2702 8.23051 17.1345 7.54776 16.8707 6.91074C16.6069 6.27372 16.2202 5.69491 15.7327 5.20738C15.2451 4.71985 14.6663 4.33314 14.0293 4.06935C13.3923 3.80556 12.7095 3.66985 12.0201 3.66998Z" fill="#292D32"/>
<path d="M13.8802 3.94C13.8092 3.93986 13.7385 3.92976 13.6702 3.91C13.3942 3.83298 13.1136 3.77286 12.8302 3.73C12.0133 3.61726 11.1818 3.6786 10.3902 3.91C10.2557 3.95174 10.1121 3.95443 9.97613 3.91777C9.84014 3.88111 9.71734 3.8066 9.62203 3.70291C9.52671 3.59921 9.46279 3.47059 9.43769 3.332C9.41259 3.19341 9.42735 3.05054 9.48024 2.92C9.67904 2.40684 10.0286 1.96592 10.4829 1.65532C10.9372 1.34472 11.4749 1.179 12.0252 1.18C12.5769 1.17603 13.1166 1.34049 13.5722 1.65141C14.0279 1.96234 14.3778 2.40491 14.5752 2.92C14.6256 3.05037 14.6391 3.19206 14.6144 3.3296C14.5898 3.46715 14.5278 3.59528 14.4352 3.7C14.3636 3.77525 14.2775 3.83528 14.1822 3.87652C14.0868 3.91776 13.9841 3.93935 13.8802 3.94Z" fill="#292D32"/>
<path d="M12.02 22.81C11.0261 22.8076 10.0735 22.4122 9.37002 21.71C8.66785 21.0065 8.27242 20.0539 8.27002 19.06H9.77002C9.77218 19.6562 10.0093 20.2275 10.43 20.65C10.8525 21.0707 11.4238 21.3078 12.02 21.31C12.6165 21.3092 13.1883 21.0719 13.6101 20.6501C14.0319 20.2283 14.2692 19.6565 14.27 19.06H15.77C15.7698 20.0545 15.3746 21.0082 14.6714 21.7114C13.9682 22.4146 13.0145 22.8097 12.02 22.81Z" fill="#292D32"/>
</svg>
